<svg xmlns="http://www.w3.org/2000/svg" viewBox="0 0 24 24" role="img" aria-labelledby="title"><title id="title">Dribbble</title><path fill="#fff" d="M12 2a10 10 0 1 0 0 20 10 10 0 0 0 0-20Zm6.8 6.4a8 8 0 0 1 1.1 3.8c-1.7-.3-3.3-.4-4.8-.2-.3-.7-.6-1.4-.9-2 1.7-.7 3.2-1.2 4.6-1.6ZM12 4a8 8 0 0 1 5.4 2.1c-1.2.3-2.6.8-4.2 1.5A33 33 0 0 0 10.7 4c.4-.1.8-.1 1.3-.1ZM8.5 4.8c.9 1.1 1.7 2.3 2.4 3.6-2.2.7-4.5 1-6.8 1A8.1 8.1 0 0 1 8.5 4.8ZM4 12v-.5c2.7 0 5.3-.4 7.8-1.3.3.6.6 1.2.8 1.8-3.2 1-5.5 2.8-7 5.3A8 8 0 0 1 4 12Zm8 8a8 8 0 0 1-4.7-1.5c1.2-2.2 3.2-3.8 6-4.7.7 1.9 1.2 3.8 1.5 5.6-.9.4-1.8.6-2.8.6Zm4.6-1.7c-.3-1.6-.7-3.3-1.3-5 1.4-.1 2.9 0 4.4.3a8 8 0 0 1-3.1 4.7Z"/></svg>
